<svg id="Layer_1" data-name="Layer 1" 
  xmlns="http://www.w3.org/2000/svg" viewBox="0 0 483.25 482.94">
  <defs>
    <style>.cls-1{fill:#b0c4dd;}</style>
  </defs>
  <title>James Heston</title>
  <path class="cls-1" d="M176.93,473.67c13.81-4.88,27.82-8.49,40.56-14.71,12.3-6,23.26-14.75,34.9-22.14a15.84,15.84,0,0,1,6.72-2.62c79.71-7.08,148.77-63.94,168.92-141.45,18.31-70.42,1.91-133-47.72-186.35-11.42-12.29-24.32-23.17-41.69-26-20.78-3.36-39.87.85-55.91,15.1s-18.62,39-6.56,57.49c8.36,12.78,19.77,22.48,31.55,31.78,18.26,14.42,35.42,29.87,48.18,49.6,19.54,30.21,24.12,62.1,9.71,95.6-3.35,7.78-8.85,14.63-13.72,22.5l-36.51-30.64c.14-.77.08-1.35.34-1.69,14.78-19.34,12.75-38.9.76-58.58-7.28-11.95-17.27-21.45-27-30.16l-54.71,54.66c3.18,4.29,7.29,9.12,10.61,14.45,21,33.69,23.44,68.3,3,102.94-11.59,19.65-29.64,32.47-50.89,40.07C161.69,456.32,127.13,453.41,95,432.6,78.78,422.11,65.8,407.84,53.7,392.9c-68.94-85.1-72.1-207.8-6-295.28C97.61,31.51,165.08-.88,248.18,0A218,218,0,0,1,301.5,7.55c1.57.41,3.1,1,5.6,1.72a19.42,19.42,0,0,1-3.26,1.46A157.08,157.08,0,0,0,231.11,45.4a13.57,13.57,0,0,1-7.05,2.92c-39.89,3.69-75.46,18.23-105.92,44-46.63,39.44-70.48,90.13-70,151.3.47,54.94,21.76,101.31,61.39,139.23,12.91,12.35,27.83,20.68,46.35,20.39,17.21-.27,33-4.82,45.64-17.12,15-14.56,17-39.16,5.36-56.55C197,314.74,183.29,303.85,169.59,293c-20.61-16.35-38.9-34.76-50.18-58.79C103,199.25,105.63,165.68,129,134.34c1.18-1.58,2.5-3.05,4.25-5.18L169.1,159c-3.38,6.18-7.28,11.55-9.42,17.54-6.09,17-1.37,32.6,8.39,46.81,9.31,13.56,21.17,24.8,34,35,2,1.55,3.35,2.19,5.46.05q25-25.23,50.09-50.3a8.47,8.47,0,0,0,.8-1.42c-1.41-1.48-2.94-3.13-4.52-4.73-26.12-26.6-38.32-57.79-30.5-95.14,5.52-26.36,21.33-45.48,44.15-59.06,44.61-26.56,99.91-19.84,137.59,15.82C441.58,98,466,139.34,477,188.16c13.18,58.77,5.81,115.33-23.37,168C414.06,427.53,353,468.83,272.36,480.68c-30.55,4.49-60.84,2.11-90.73-5.57C180,474.68,178.31,474.1,176.93,473.67Z"/>
</svg>